<svg width="32" height="32" viewBox="0 0 32 32" fill="unset" xmlns="http://www.w3.org/2000/svg">
<g clip-path="url(#clip0_411_183)">
<path d="M15.9933 0C7.17467 0 0 7.176 0 15.9947C0 24.8213 7.17467 32 15.9933 32C24.82 32 32 24.82 32 15.9947C32 7.176 24.82 0 15.9933 0ZM7.87733 21.872C9.70856 21.311 11.6128 21.0244 13.528 21.0213C16.7467 21.0213 19.924 21.8373 22.7173 23.3813C22.884 23.472 23.0347 23.7707 23.104 24.144C23.1707 24.5173 23.144 24.9 23.0347 25.0987C22.9831 25.1932 22.9134 25.2765 22.8294 25.3438C22.7454 25.4112 22.6489 25.4612 22.5455 25.4909C22.4421 25.5207 22.3338 25.5296 22.2268 25.5172C22.1199 25.5048 22.0165 25.4713 21.9227 25.4187C19.8709 24.2931 17.614 23.5911 15.2859 23.3543C12.9577 23.1175 10.6057 23.3506 8.36933 24.04C8.26667 24.0732 8.15843 24.0856 8.05091 24.0766C7.94339 24.0675 7.83875 24.0372 7.74307 23.9873C7.6474 23.9374 7.56261 23.869 7.49364 23.786C7.42466 23.703 7.37289 23.6072 7.34133 23.504C7.19867 23.0373 7.49333 21.9973 7.87733 21.872ZM7.18 15.9787C9.24873 15.4166 11.383 15.1319 13.5267 15.132C17.3853 15.132 21.216 16.0653 24.6067 17.8333C24.8453 17.9533 25.02 18.1587 25.1 18.4093C25.1404 18.5359 25.1551 18.6693 25.1432 18.8017C25.1313 18.934 25.0931 19.0627 25.0307 19.18C24.728 19.772 24.3733 20.1707 24.1507 20.1707C23.9882 20.17 23.8283 20.1306 23.684 20.056C20.5496 18.4196 17.0638 17.5711 13.528 17.584C11.5612 17.5801 9.60301 17.8424 7.70667 18.364C7.58016 18.3986 7.44808 18.4079 7.31797 18.3914C7.18786 18.375 7.06226 18.3331 6.94836 18.2681C6.83445 18.2031 6.73446 18.1163 6.6541 18.0126C6.57374 17.909 6.51458 17.7905 6.48 17.664C6.33067 17.1013 6.67333 16.1173 7.18 15.9787ZM7 12.1307C6.84993 12.1692 6.69371 12.1776 6.54036 12.1554C6.38702 12.1332 6.23959 12.0809 6.10658 12.0014C5.97356 11.922 5.85761 11.817 5.7654 11.6925C5.67319 11.5679 5.60655 11.4264 5.56933 11.276C5.40533 10.612 5.82 9.84133 6.42267 9.68933C8.74734 9.11676 11.1325 8.82622 13.5267 8.824C18.1267 8.824 22.5347 9.85867 26.6253 11.9C26.9064 12.0398 27.1205 12.2854 27.2205 12.5829C27.3205 12.8805 27.2982 13.2055 27.1587 13.4867C26.968 13.8707 26.5547 14.284 26.0987 14.284C25.9198 14.2833 25.7433 14.2438 25.5813 14.168C21.8408 12.2915 17.7115 11.3205 13.5267 11.3333C11.3467 11.3333 9.15067 11.6013 7 12.1307Z" fill="unset"/>
</g>
<defs>
<clipPath id="clip0_411_183">
<rect width="32" height="32" fill="unset"/>
</clipPath>
</defs>
</svg>
