<svg width="32" height="32" viewBox="0 0 32 32" fill="none" xmlns="http://www.w3.org/2000/svg">
<path d="M28.9894 9.63589C28.9894 8.83637 28.922 8.04009 28.7311 7.2617C28.3882 5.84384 27.5798 4.76074 26.37 3.96528C25.7477 3.55902 25.0627 3.30957 24.3348 3.17794C23.7757 3.08013 23.2099 3.02634 22.6424 3.01706C22.6001 3.013 22.5538 3.00406 22.5067 3H9.48192C9.31699 3.013 9.15206 3.02113 8.98713 3.02925C8.17871 3.07556 7.37518 3.16007 6.61307 3.46476C5.16606 4.03597 4.1204 5.03456 3.51105 6.47355C3.2998 6.96025 3.19337 7.4762 3.11781 8.00109C3.05444 8.42442 3.02031 8.85181 3.00812 9.2792C3.00812 9.31332 3 9.34664 3 9.38076V22.6225L3.02519 23.0799C3.08043 23.9648 3.19418 24.8407 3.56711 25.6532C4.2699 27.1897 5.45042 28.2005 7.07131 28.6872C7.52386 28.8269 7.99834 28.8903 8.47202 28.9326C9.07325 28.9919 9.67367 29 10.2749 29H22.2248C22.7919 29 23.359 28.9618 23.9261 28.8903C24.819 28.7757 25.6567 28.5133 26.4147 28.0144C27.312 27.4331 28.0195 26.6018 28.45 25.6231C28.6531 25.1657 28.7676 24.6798 28.8521 24.1882C28.9748 23.4561 29 22.7151 29 21.9749C28.9959 17.8611 29 13.7481 28.9959 9.63427L28.9894 9.63589ZM22.0322 13.9561V20.1435C22.0322 20.5961 21.9688 21.0405 21.7657 21.4508C21.4529 22.0895 20.9451 22.4917 20.2635 22.6867C19.8858 22.7949 19.4966 22.8574 19.1041 22.8727C18.6105 22.9019 18.1234 22.7486 17.7355 22.4419C17.3476 22.1352 17.086 21.6966 17.0006 21.2095C16.9223 20.7713 16.9899 20.3195 17.1932 19.9235C17.3965 19.5275 17.7241 19.2091 18.1258 19.0173C18.4728 18.8483 18.8498 18.7467 19.2259 18.6704C19.6362 18.5818 20.0465 18.5014 20.4528 18.4079C20.7534 18.3405 20.9476 18.1585 21.0069 17.8489C21.0239 17.7815 21.028 17.7091 21.028 17.6417V11.7428C21.0265 11.6755 21.0167 11.6086 20.9988 11.5437C20.9565 11.3788 20.8379 11.2813 20.6689 11.2894C20.495 11.2975 20.326 11.3276 20.157 11.3617C19.3316 11.5226 18.5069 11.6875 17.6855 11.8565L13.6784 12.665C13.6613 12.6691 13.6402 12.678 13.6231 12.678C13.3225 12.7625 13.2169 12.8982 13.2039 13.211C13.1998 13.2573 13.2039 13.3044 13.2039 13.3508C13.1998 16.1694 13.2039 18.9881 13.1998 21.8059C13.1998 22.2634 13.1486 22.7119 12.9674 23.1344C12.6668 23.8283 12.1338 24.2646 11.4148 24.4718C11.0347 24.5824 10.6422 24.645 10.2465 24.6579C9.20974 24.6961 8.34608 24.0062 8.16896 22.9865C8.01622 22.1065 8.41839 21.1583 9.41692 20.735C9.8061 20.5741 10.2083 20.4855 10.6186 20.401L11.5497 20.2109C11.964 20.1223 12.1802 19.8599 12.2013 19.4366V9.65215C12.2013 9.51645 12.2183 9.38157 12.2476 9.24995C12.324 8.94119 12.5441 8.76324 12.8399 8.69093C13.1153 8.61861 13.3989 8.56824 13.6775 8.50892C14.473 8.34804 15.2643 8.18716 16.0597 8.03034L18.5183 7.53064C19.2462 7.38682 19.9693 7.23895 20.6973 7.09513C20.9346 7.04881 21.1759 6.99763 21.4164 6.98056C21.7503 6.95131 21.9835 7.16257 22.0176 7.50139C22.0257 7.58183 22.0306 7.66227 22.0306 7.74271V13.9512L22.0322 13.9561Z" fill="#313131"/>
</svg>
