<svg width="36" height="36" viewBox="0 0 36 36" fill="none" xmlns="http://www.w3.org/2000/svg">
<g filter="url(#filter0_f_204_176)">
<path d="M15.8308 31.8674C13.7025 19.5102 12.9596 18.0088 14.5001 14.5C16.6102 9.69368 22.0599 7.45972 26.6722 9.51031C31.2846 11.5609 33.313 17.1195 31.2029 21.9258C29.6624 25.4346 28.0591 25.8929 17.5474 32.6306C16.8586 33.0705 15.9715 32.6761 15.8308 31.8674Z" fill="#060404" fill-opacity="0.5"/>
</g>
<path d="M14.8695 34.3947C6.54516 22.0526 5 20.7859 5 16.25C5 10.0368 9.92485 5 16 5C22.0752 5 27 10.0368 27 16.25C27 20.7859 25.4548 22.0526 17.1305 34.3947C16.5842 35.2018 15.4157 35.2017 14.8695 34.3947Z" fill="#BA545E"/>
<path d="M16.6789 20.3879C16.6473 20.0274 16.3328 19.7457 15.9543 19.7457C15.7912 19.7446 15.6324 19.7984 15.5035 19.8983C15.3745 19.9983 15.2829 20.1386 15.2434 20.2969L14.5324 23.7492C14.5089 23.8502 14.4967 23.9534 14.4961 24.0571C14.4961 24.8356 15.1477 25.3766 15.9543 25.3766C16.7609 25.3766 17.4129 24.8356 17.4129 24.0571C17.4125 23.9323 17.3955 23.8082 17.3625 23.6879L16.6789 20.3879ZM22.0566 21.9321C21.9843 21.8687 21.9065 21.8118 21.8242 21.7621L19.1082 19.8641C18.8438 19.6981 18.5613 19.7028 18.3563 19.9032C18.2667 19.9883 18.2099 20.1022 18.1956 20.225C18.1814 20.3477 18.2105 20.4716 18.2781 20.575L20.3289 23.2703C20.3757 23.3357 20.428 23.397 20.4852 23.4535C20.8406 23.8508 21.6289 23.8727 22.0621 23.4535C22.4895 23.0274 22.4844 22.268 22.0566 21.9321V21.9321ZM24.0977 19.1203H21.3469C21.1691 19.1203 21 19.2512 21 19.4391C21 19.627 21.1152 19.7457 21.2703 19.7969L23.8652 20.5996C24.2422 20.6875 24.75 20.3516 24.75 19.9321C24.75 19.3985 24.4531 19.1203 24.0977 19.1203V19.1203ZM11.0086 19.4375C11.0086 19.2422 10.8309 19.1188 10.6395 19.1188H7.88867C7.54219 19.1188 7.25 19.493 7.25 19.9125C7.25 20.3321 7.74297 20.6875 8.12109 20.5996L10.7551 19.7969C10.9266 19.7457 11.0086 19.6328 11.0086 19.4375ZM12.8965 19.8672L10.1797 21.7571C10.0953 21.8045 10.0167 21.8615 9.94531 21.927C9.84182 22.0232 9.75928 22.1398 9.70283 22.2694C9.64639 22.3989 9.61726 22.5388 9.61726 22.6801C9.61726 22.8214 9.64639 22.9613 9.70283 23.0908C9.75928 23.2204 9.84182 23.337 9.94531 23.4332C10.1584 23.6345 10.4405 23.7466 10.7336 23.7466C11.0267 23.7466 11.3088 23.6345 11.5219 23.4332C11.5799 23.3777 11.6323 23.3164 11.6781 23.2504L13.7305 20.5703C13.8672 20.3524 13.8445 20.0824 13.6523 19.9039C13.551 19.8094 13.4195 19.7539 13.2811 19.7472C13.1428 19.7405 13.0065 19.783 12.8965 19.8672V19.8672Z" fill="white"/>
<path d="M20.3751 10.8863C20.3751 8.71055 18.4524 7.40352 16.6954 7.25118C16.6531 7.24749 16.6104 7.25247 16.5701 7.26581C16.5298 7.27914 16.4926 7.30056 16.4608 7.32874C16.4291 7.35693 16.4034 7.39129 16.3853 7.42974C16.3673 7.46818 16.3573 7.5099 16.3559 7.55235C16.234 10.5211 12.0833 11.8762 11.6735 14.532C11.4001 16.3055 12.3239 17.359 13.0137 17.8828C13.0868 17.9383 13.1712 17.977 13.2609 17.9961C13.3507 18.0152 13.4435 18.0142 13.5328 17.9932C13.6221 17.9723 13.7057 17.9318 13.7776 17.8748C13.8494 17.8177 13.9078 17.7455 13.9485 17.6633C14.8274 15.8719 16.852 15.1832 18.2344 14.3063C19.9094 13.2438 20.3751 12.1016 20.3751 10.8863V10.8863Z" stroke="white" stroke-miterlimit="10" stroke-linecap="round"/>
<path d="M15.375 9.73822C14.8742 8.83979 14.1832 8.52729 13.0641 8.50268C13.025 8.50049 12.9866 8.51358 12.957 8.53916C12.9274 8.56474 12.909 8.60082 12.9055 8.63979C12.8684 9.9765 11.625 10.3917 11.625 11.4972C11.625 12.2538 11.8355 12.63 12.2953 13.0316M19.7676 12.9828C20.1035 13.5417 20.375 14.1578 20.375 14.8578C20.375 16.9093 18.716 18.4945 16.6695 18.4945C15.7224 18.4952 14.8113 18.1315 14.125 17.4788" stroke="white" stroke-miterlimit="10" stroke-linecap="round"/>
<defs>
<filter id="filter0_f_204_176" x="10.6821" y="5.7489" width="24.3555" height="30.0642" filterUnits="userSpaceOnUse" color-interpolation-filters="sRGB">
<feFlood flood-opacity="0" result="BackgroundImageFix"/>
<feBlend mode="normal" in="SourceGraphic" in2="BackgroundImageFix" result="shape"/>
<feGaussianBlur stdDeviation="1.5" result="effect1_foregroundBlur_204_176"/>
</filter>
</defs>
</svg>
