<svg width="31" height="31" viewBox="0 0 31 31" fill="none" xmlns="http://www.w3.org/2000/svg">
<g filter="url(#filter0_f_45_203)">
<path d="M10.8308 26.8674C8.70242 14.5102 7.9595 13.0088 9.5 9.5C11.6102 4.69368 17.0598 2.45972 21.6722 4.51031C26.2845 6.56089 28.313 12.1195 26.2028 16.9258C24.6623 20.4346 23.059 20.8929 12.5473 27.6306C11.8585 28.0705 10.9714 27.6761 10.8308 26.8674Z" fill="#060404" fill-opacity="0.5"/>
</g>
<path d="M9.86952 29.3947C1.54516 17.0526 0 15.7859 0 11.25C0 5.03678 4.92485 0 11 0C17.0752 0 22 5.03678 22 11.25C22 15.7859 20.4548 17.0526 12.1305 29.3947C11.5842 30.2018 10.4157 30.2017 9.86952 29.3947Z" fill="#546980"/>
<path d="M11.625 8C11.625 8.16576 11.6908 8.32473 11.8081 8.44194C11.9253 8.55915 12.0842 8.625 12.25 8.625H13.5C13.6658 8.625 13.8247 8.55915 13.9419 8.44194C14.0592 8.32473 14.125 8.16576 14.125 8C14.125 7.83424 14.0592 7.67527 13.9419 7.55806C13.8247 7.44085 13.6658 7.375 13.5 7.375H12.25C12.0842 7.375 11.9253 7.44085 11.8081 7.55806C11.6908 7.67527 11.625 7.83424 11.625 8ZM7.625 18.4453L7.35937 20.3203C7.33227 20.4978 7.34396 20.679 7.39363 20.8515C7.4433 21.024 7.52978 21.1837 7.6471 21.3196C7.76442 21.4555 7.90979 21.5643 8.07322 21.6386C8.23664 21.7129 8.41423 21.7509 8.59375 21.75H13.4063C13.5858 21.7509 13.7634 21.7129 13.9268 21.6386C14.0902 21.5643 14.2356 21.4555 14.3529 21.3196C14.4702 21.1837 14.5567 21.024 14.6064 20.8515C14.656 20.679 14.6677 20.4978 14.6406 20.3203L14.375 18.4453C15.6149 17.8205 16.6571 16.8638 17.3854 15.6817C18.1137 14.4995 18.4996 13.1385 18.5 11.75C18.5 11.5842 18.4342 11.4253 18.3169 11.3081C18.1997 11.1908 18.0408 11.125 17.875 11.125H16.625V6.125C16.625 5.79348 16.4933 5.47554 16.2589 5.24112C16.0245 5.0067 15.7065 4.875 15.375 4.875H6.625C6.29348 4.875 5.97554 5.0067 5.74112 5.24112C5.5067 5.47554 5.375 5.79348 5.375 6.125V11.125H4.125C3.95924 11.125 3.80027 11.1908 3.68306 11.3081C3.56585 11.4253 3.5 11.5842 3.5 11.75C3.50044 13.1385 3.88631 14.4995 4.61461 15.6817C5.34291 16.8638 6.38507 17.8205 7.625 18.4453V18.4453ZM15.375 11.125H6.625V6.125H15.375V11.125ZM8.82031 18.9297C10.2421 19.3567 11.7579 19.3567 13.1797 18.9297L13.4063 20.5H8.59375L8.82031 18.9297ZM4.78125 12.375H17.2187C17.064 13.9168 16.342 15.3461 15.1929 16.3856C14.0438 17.4252 12.5495 18.0008 11 18.0008C9.45047 18.0008 7.95618 17.4252 6.80708 16.3856C5.65798 15.3461 4.93601 13.9168 4.78125 12.375V12.375Z" fill="white"/>
<path d="M11.625 8C11.625 8.16576 11.6908 8.32473 11.8081 8.44194C11.9253 8.55915 12.0842 8.625 12.25 8.625H13.5C13.6658 8.625 13.8247 8.55915 13.9419 8.44194C14.0592 8.32473 14.125 8.16576 14.125 8C14.125 7.83424 14.0592 7.67527 13.9419 7.55806C13.8247 7.44085 13.6658 7.375 13.5 7.375H12.25C12.0842 7.375 11.9253 7.44085 11.8081 7.55806C11.6908 7.67527 11.625 7.83424 11.625 8ZM7.625 18.4453L7.35938 20.3203C7.33227 20.4978 7.34396 20.679 7.39363 20.8515C7.4433 21.024 7.52978 21.1837 7.6471 21.3196C7.76442 21.4555 7.90979 21.5643 8.07322 21.6386C8.23664 21.7129 8.41423 21.7509 8.59375 21.75H13.4062C13.5858 21.7509 13.7634 21.7129 13.9268 21.6386C14.0902 21.5643 14.2356 21.4555 14.3529 21.3196C14.4702 21.1837 14.5567 21.024 14.6064 20.8515C14.656 20.679 14.6677 20.4978 14.6406 20.3203L14.375 18.4453C15.6149 17.8205 16.6571 16.8638 17.3854 15.6817C18.1137 14.4995 18.4996 13.1385 18.5 11.75C18.5 11.5842 18.4342 11.4253 18.3169 11.3081C18.1997 11.1908 18.0408 11.125 17.875 11.125H16.625V6.125C16.625 5.79348 16.4933 5.47554 16.2589 5.24112C16.0245 5.0067 15.7065 4.875 15.375 4.875H6.625C6.29348 4.875 5.97554 5.0067 5.74112 5.24112C5.5067 5.47554 5.375 5.79348 5.375 6.125V11.125H4.125C3.95924 11.125 3.80027 11.1908 3.68306 11.3081C3.56585 11.4253 3.5 11.5842 3.5 11.75C3.50044 13.1385 3.88631 14.4995 4.61461 15.6817C5.34291 16.8638 6.38507 17.8205 7.625 18.4453V18.4453ZM15.375 11.125H6.625V6.125H15.375V11.125ZM8.82031 18.9297C10.2421 19.3567 11.7579 19.3567 13.1797 18.9297L13.4062 20.5H8.59375L8.82031 18.9297ZM4.78125 12.375H17.2187C17.064 13.9168 16.342 15.3461 15.1929 16.3856C14.0438 17.4252 12.5495 18.0008 11 18.0008C9.45047 18.0008 7.95618 17.4252 6.80708 16.3856C5.65798 15.3461 4.93601 13.9168 4.78125 12.375V12.375Z" fill="white"/>
<defs>
<filter id="filter0_f_45_203" x="5.68207" y="0.748901" width="24.3555" height="30.0642" filterUnits="userSpaceOnUse" color-interpolation-filters="sRGB">
<feFlood flood-opacity="0" result="BackgroundImageFix"/>
<feBlend mode="normal" in="SourceGraphic" in2="BackgroundImageFix" result="shape"/>
<feGaussianBlur stdDeviation="1.5" result="effect1_foregroundBlur_45_203"/>
</filter>
</defs>
</svg>
