<svg width="31" height="31" viewBox="0 0 31 31" fill="none" xmlns="http://www.w3.org/2000/svg">
<g filter="url(#filter0_f_204_169)">
<path d="M10.8308 26.8674C8.70242 14.5102 7.9595 13.0088 9.5 9.5C11.6102 4.69368 17.0598 2.45972 21.6722 4.51031C26.2845 6.56089 28.313 12.1195 26.2028 16.9258C24.6623 20.4346 23.059 20.8929 12.5473 27.6306C11.8585 28.0705 10.9714 27.6761 10.8308 26.8674Z" fill="#060404" fill-opacity="0.5"/>
</g>
<path d="M9.86952 29.3947C1.54516 17.0526 0 15.7859 0 11.25C0 5.03678 4.92485 0 11 0C17.0752 0 22 5.03678 22 11.25C22 15.7859 20.4548 17.0526 12.1305 29.3947C11.5842 30.2018 10.4157 30.2017 9.86952 29.3947Z" fill="#BA545E"/>
<g clip-path="url(#clip0_204_169)">
<path d="M13 10.125C13 11.1594 12.1031 12 11 12C9.89689 12 9.00001 11.1594 9.00001 10.125C9.00001 9.34688 10.0531 7.93437 10.6313 7.20312C10.8219 6.96156 11.1781 6.96156 11.3688 7.20312C11.9469 7.93437 13 9.34688 13 10.125ZM16 4C16.2781 4 16.5438 4.11537 16.7313 4.31844C16.9219 4.52156 17.0188 4.79437 16.9969 5.07125L16.0969 17.6781C16.0031 18.9875 14.9156 20 13.6031 20H8.39689C7.08501 20 5.99657 18.9875 5.90314 17.6781L5.00254 5.07125C4.99276 4.93426 5.01129 4.79672 5.05698 4.6672C5.10268 4.53768 5.17455 4.41896 5.26814 4.31844C5.36174 4.21797 5.47502 4.13784 5.60094 4.08306C5.72685 4.02827 5.86269 4 6.00001 4H16ZM8.00001 13.5C8.62814 13.8156 9.37189 13.8156 10 13.5C10.6281 13.1844 11.3719 13.1844 12 13.5C12.6281 13.8156 13.3719 13.8156 14 13.5L15 13L15.5 5.5H6.5L7 13L8.00001 13.5Z" fill="white"/>
</g>
<defs>
<filter id="filter0_f_204_169" x="5.68207" y="0.748901" width="24.3555" height="30.0642" filterUnits="userSpaceOnUse" color-interpolation-filters="sRGB">
<feFlood flood-opacity="0" result="BackgroundImageFix"/>
<feBlend mode="normal" in="SourceGraphic" in2="BackgroundImageFix" result="shape"/>
<feGaussianBlur stdDeviation="1.5" result="effect1_foregroundBlur_204_169"/>
</filter>
<clipPath id="clip0_204_169">
<rect width="12" height="16" fill="white" transform="translate(5 4)"/>
</clipPath>
</defs>
</svg>
