<svg width="256" height="256" viewBox="0 0 256 256" fill="none" xmlns="http://www.w3.org/2000/svg">
<g clip-path="url(#clip0_701_82)">
<path d="M128.019 183.163C111.637 171.024 37.9156 256 37.9156 256C37.9156 256 97.5968 150.791 87.0629 146.745C76.529 142.698 13.342 98.7613 1.05512 104.548C-11.2317 110.326 87.6446 104.548 97.5969 104.548C107.541 104.548 128.019 37.4893 128.019 5.11732C128.019 -27.2546 152.593 104.548 158.441 104.548C164.29 104.548 267.27 101.076 254.983 104.548C242.696 108.012 168.975 130.559 168.975 146.745C168.975 162.931 214.027 256 214.027 256C214.027 256 144.401 195.303 128.019 183.163Z" fill="white" stroke="white" stroke-linecap="round" stroke-linejoin="round"/>
</g>
<defs>
<clipPath id="clip0_701_82">
<rect width="256" height="256" fill="white"/>
</clipPath>
</defs>
</svg>
