<svg width="256" height="256" viewBox="0 0 256 256" fill="none" xmlns="http://www.w3.org/2000/svg">
<path d="M128.018 180.293C112.531 168.675 42.8421 250 42.8421 250C42.8421 250 99.2595 149.312 89.3017 145.439C79.3438 141.567 19.6123 99.5177 7.99742 105.056C-3.61747 110.586 89.8515 105.056 99.2596 105.056C108.66 105.056 128.018 40.8784 128.018 9.89743C128.018 -21.0835 151.248 105.056 156.776 105.056C162.305 105.056 259.653 101.733 248.039 105.056C236.424 108.37 166.734 129.949 166.734 145.439C166.734 160.93 209.322 250 209.322 250C209.322 250 143.505 191.911 128.018 180.293Z" stroke="white" stroke-width="9" stroke-linecap="round" stroke-linejoin="round"/>
</svg>
