<svg width="256" height="256" viewBox="0 0 256 256" fill="none" xmlns="http://www.w3.org/2000/svg">
<g clip-path="url(#clip0_701_85)">
<path d="M5.34423 121.16C2.98948e-05 94.1935 1.78037 72.7822 0 34.8626C0 34.8626 67.1234 -6.7828 69.5071 1.50842C72.9811 -7.02611 186.182 34.4462 186.182 34.4462C186.182 34.4462 257.85 -10.0186 255.707 2.08959C253.564 14.1899 254.667 21.5523 255.707 34.4462V185.465C255.707 196.253 250.363 207.041 255.707 217.829C261.051 228.617 191.526 255.584 191.526 255.584C174.603 247.534 88.7573 222.148 69.525 219.06C70.3713 224.748 5.34423 256 5.34423 256C6.52105 209.594 10.9421 216.753 10.6884 169.703L5.34423 121.16Z" fill="white"/>
<path d="M5.34423 121.16C2.98948e-05 94.1935 1.78037 72.7822 0 34.8626C0 34.8626 71.6676 -9.60214 69.525 2.50604C67.3823 14.6064 68.4847 21.9687 69.525 34.8626V185.881C69.525 196.669 68.6786 212.557 69.525 218.245C70.3713 223.934 5.34423 256 5.34423 256C6.52105 209.594 10.9421 216.753 10.6884 169.703M5.34423 121.16C8.17885 135.468 10.6566 163.818 10.6884 169.703ZM5.34423 121.16L10.6884 169.703ZM191.526 255.584C191.526 255.584 261.051 228.617 255.707 217.829C250.363 207.041 255.707 196.253 255.707 185.465V34.4462C254.667 21.5523 253.564 14.1899 255.707 2.08959C257.85 -10.0186 186.182 34.4462 186.182 34.4462C187.962 72.3658 186.182 93.777 191.526 120.743M191.526 255.584C192.703 209.178 197.124 216.336 196.87 169.286ZM191.526 255.584C174.546 247.506 89.2122 223.934 70.3713 220.988ZM191.526 120.743C194.361 135.052 196.839 163.401 196.87 169.286ZM191.526 120.743L196.87 169.286ZM70.3713 2.121C66.3242 -10.16 186.182 34.949 186.182 34.949Z" fill="white"/>
<path d="M5.34423 121.16C2.98948e-05 94.1935 1.78037 72.7822 0 34.8626M5.34423 121.16C8.17885 135.468 10.6566 163.818 10.6884 169.703M5.34423 121.16L10.6884 169.703M0 34.8626C0 34.8626 67.1234 -6.7828 69.5071 1.50842M0 34.8626C0 34.8626 71.6676 -9.60214 69.525 2.50604M69.5071 1.50842C69.5864 1.78447 69.594 2.11589 69.525 2.50604M69.5071 1.50842C69.3938 1.78672 69.3972 2.11821 69.525 2.50604M69.5071 1.50842C72.9811 -7.02611 186.182 34.4462 186.182 34.4462M69.525 2.50604C67.3823 14.6064 68.4847 21.9687 69.525 34.8626V185.881C69.525 196.669 68.6786 212.557 69.525 218.245C70.3713 223.934 5.34423 256 5.34423 256M69.525 219.06C70.3713 224.748 5.34423 256 5.34423 256M69.525 219.06C88.7573 222.148 174.603 247.534 191.526 255.584M69.525 219.06C69.4594 219.049 69.3947 219.039 69.3307 219.029M5.34423 256C6.52105 209.594 10.9421 216.753 10.6884 169.703M191.526 255.584C191.526 255.584 261.051 228.617 255.707 217.829C250.363 207.041 255.707 196.253 255.707 185.465V34.4462C254.667 21.5523 253.564 14.1899 255.707 2.08959C257.85 -10.0186 186.182 34.4462 186.182 34.4462M191.526 255.584C192.703 209.178 197.124 216.336 196.87 169.286M191.526 255.584C174.546 247.506 89.2122 223.934 70.3713 220.988M186.182 34.4462C187.962 72.3658 186.182 93.777 191.526 120.743M191.526 120.743C194.361 135.052 196.839 163.401 196.87 169.286M191.526 120.743L196.87 169.286M70.3713 2.121C66.3242 -10.16 186.182 34.949 186.182 34.949" stroke="#2700CF" stroke-width="7"/>
</g>
<defs>
<clipPath id="clip0_701_85">
<rect width="256" height="256" fill="white"/>
</clipPath>
</defs>
</svg>
