<svg width="256" height="256" viewBox="0 0 256 256" fill="none" xmlns="http://www.w3.org/2000/svg">
<path d="M15.0102 121.587C10 96.3064 11.6691 76.2333 10 40.6837C10 40.6837 77.1884 -1.00201 75.1797 10.3494C73.1709 21.6935 74.2044 28.5956 75.1797 40.6837V182.263C75.1797 192.377 74.3862 207.272 75.1797 212.605C75.9731 217.938 15.0102 248 15.0102 248C16.1135 204.495 20.2582 211.205 20.0204 167.096M15.0102 121.587C17.6677 135.001 19.9906 161.579 20.0204 167.096M15.0102 121.587L20.0204 167.096M189.556 247.61C189.556 247.61 254.735 222.329 249.725 212.215C244.715 202.101 249.725 191.987 249.725 181.873V40.2933C248.75 28.2053 247.717 21.303 249.725 9.95899C251.734 -1.39243 184.546 40.2933 184.546 40.2933C186.215 75.8429 184.546 95.916 189.556 121.197M189.556 247.61C190.659 204.104 194.804 210.815 194.566 166.706M189.556 247.61C173.637 240.037 93.6364 217.938 75.9731 215.176M189.556 121.197C192.213 134.611 194.536 161.189 194.566 166.706M189.556 121.197L194.566 166.706M75.9731 9.98844C72.1789 -1.52504 184.546 40.7647 184.546 40.7647" stroke="white" stroke-width="8"/>
</svg>
