<svg width="256" height="256" viewBox="0 0 256 256" fill="none" xmlns="http://www.w3.org/2000/svg">
<path d="M6.63986 127.225C3.39129 137.457 13.0666 145.508 23.151 149.221C36.6807 154.203 53.1978 146.816 56.1747 132.725C58.7622 120.469 52.0323 107.246 39.6629 105.228C30.1763 103.677 25.2347 110.328 17.6471 116.223C12.8489 119.956 8.47692 121.435 6.63986 127.225Z" stroke="white" stroke-width="9"/>
<path d="M100.846 127.448C97.597 137.687 107.273 145.738 117.357 149.445C130.887 154.426 147.404 147.046 150.38 132.949C152.968 120.699 146.238 107.469 133.869 105.452C124.382 103.907 119.441 110.551 111.854 116.453C107.055 120.179 102.683 121.658 100.846 127.448Z" stroke="white" stroke-width="9"/>
<path d="M199.916 127.448C196.667 137.687 206.343 145.738 216.428 149.445C229.957 154.426 246.474 147.046 249.451 132.949C252.038 120.699 245.308 107.469 232.939 105.452C223.452 103.907 218.511 110.551 210.924 116.453C206.125 120.179 201.753 121.658 199.916 127.448Z" stroke="white" stroke-width="9"/>
</svg>
