<svg width="256" height="256" viewBox="0 0 256 256" fill="none" xmlns="http://www.w3.org/2000/svg">
<path d="M4.65035 127.191C1.34853 137.869 11.1825 146.269 21.4322 150.144C35.1837 155.342 51.9715 147.634 54.9972 132.931C57.6272 120.141 50.7869 106.343 38.2147 104.238C28.5727 102.62 23.5501 109.56 15.838 115.711C10.9612 119.606 6.51752 121.149 4.65035 127.191Z" fill="white"/>
<path d="M100.4 127.424C97.0986 138.109 106.933 146.509 117.183 150.377C130.934 155.575 147.722 147.874 150.747 133.164C153.377 120.381 146.537 106.577 133.965 104.471C124.323 102.86 119.301 109.793 111.589 115.951C106.711 119.839 102.268 121.382 100.4 127.424Z" fill="white"/>
<path d="M201.095 127.424C197.793 138.109 207.628 146.509 217.877 150.377C231.629 155.575 248.416 147.874 251.442 133.164C254.072 120.381 247.231 106.577 234.659 104.471C225.017 102.86 219.995 109.793 212.283 115.951C207.406 119.839 202.962 121.382 201.095 127.424Z" fill="white"/>
<path d="M4.65035 127.191C1.34853 137.869 11.1825 146.269 21.4322 150.144C35.1837 155.342 51.9715 147.634 54.9972 132.931C57.6272 120.141 50.7869 106.343 38.2147 104.238C28.5727 102.62 23.5501 109.56 15.838 115.711C10.9612 119.606 6.51752 121.149 4.65035 127.191Z" stroke="white" stroke-width="2"/>
<path d="M100.4 127.424C97.0986 138.109 106.933 146.509 117.183 150.377C130.934 155.575 147.722 147.874 150.747 133.164C153.377 120.381 146.537 106.577 133.965 104.471C124.323 102.86 119.301 109.793 111.589 115.951C106.711 119.839 102.268 121.382 100.4 127.424Z" stroke="white" stroke-width="2"/>
<path d="M201.095 127.424C197.793 138.109 207.628 146.509 217.877 150.377C231.629 155.575 248.416 147.874 251.442 133.164C254.072 120.381 247.231 106.577 234.659 104.471C225.017 102.86 219.995 109.793 212.283 115.951C207.406 119.839 202.962 121.382 201.095 127.424Z" stroke="white" stroke-width="2"/>
</svg>
