<svg width="256" height="256" viewBox="0 0 256 256" fill="none" xmlns="http://www.w3.org/2000/svg">
<g clip-path="url(#clip0_701_59)">
<path d="M141.859 126.935C139.66 138.664 140.39 147.969 139.66 164.456L109.299 114.222M141.859 126.935C143.023 120.716 144.049 108.38 144.058 105.827M141.859 126.935L144.058 105.827M144.058 105.827C144.171 85.3624 142.345 88.4761 141.859 68.2963M44.4242 43.478C63.0332 22.0306 125.058 8.07822 152.324 4C179.598 8.07822 200.928 51.4415 219.546 72.8889C238.155 94.3363 246.446 105.735 247.933 134.797C256.216 143.698 238.155 197.164 219.546 218.612C200.928 240.059 136.644 250.365 117.557 252C90.2905 247.922 62.9724 234.364 44.3547 212.917C25.7457 191.47 -6.13563 143.698 8.91847 134.797C10.4048 105.735 25.8065 64.9254 44.4242 43.478Z" stroke="white" stroke-width="8"/>
</g>
<defs>
<clipPath id="clip0_701_59">
<rect width="256" height="256" fill="white"/>
</clipPath>
</defs>
</svg>
