<svg width="256" height="256" viewBox="0 0 256 256" fill="none" xmlns="http://www.w3.org/2000/svg">
<g clip-path="url(#clip0_701_79)">
<path d="M143.003 126.9C140.706 139.008 141.468 148.613 140.706 165.632L108.982 113.778M143.003 126.9C144.22 120.481 145.292 107.748 145.301 105.112ZM143.003 126.9L145.301 105.112ZM145.301 105.112C145.419 83.987 143.512 87.2012 143.003 66.3704ZM41.1942 40.7514C60.6388 18.6122 125.448 4.20978 153.938 0C182.437 4.20978 204.725 48.9719 224.178 71.1111C243.623 93.2504 252.287 105.017 253.84 135.016C262.495 144.204 243.623 199.396 224.178 221.535C204.725 243.674 137.554 254.312 117.61 256C89.1199 251.79 60.5752 237.796 41.1216 215.656C21.6771 193.517 -11.6356 144.204 4.0944 135.016C5.64742 105.017 21.7406 62.8907 41.1942 40.7514Z" fill="white"/>
<path d="M143.003 126.9C140.706 139.008 141.468 148.613 140.706 165.632L108.982 113.778M143.003 126.9C144.22 120.481 145.292 107.748 145.301 105.112M143.003 126.9L145.301 105.112M145.301 105.112C145.419 83.987 143.512 87.2012 143.003 66.3704M41.1942 40.7514C60.6388 18.6122 125.448 4.20978 153.938 0C182.437 4.20978 204.725 48.9719 224.178 71.1111C243.623 93.2504 252.287 105.017 253.84 135.016C262.495 144.204 243.623 199.396 224.178 221.535C204.725 243.674 137.554 254.312 117.61 256C89.1199 251.79 60.5752 237.796 41.1216 215.656C21.6771 193.517 -11.6356 144.204 4.0944 135.016C5.64742 105.017 21.7406 62.8907 41.1942 40.7514Z" stroke="white"/>
<path d="M143.002 126.9C144.219 120.481 145.291 107.748 145.3 105.112L143.002 126.9Z" fill="#2700CF"/>
<path d="M143.002 126.9C140.704 139.008 141.467 148.613 140.704 165.632L108.981 113.778M143.002 126.9C144.219 120.481 145.291 107.748 145.3 105.112M143.002 126.9L145.3 105.112M145.3 105.112C145.418 83.9872 143.511 87.2014 143.002 66.3706" stroke="#2700CF" stroke-width="8"/>
</g>
<defs>
<clipPath id="clip0_701_79">
<rect width="256" height="256" fill="white"/>
</clipPath>
</defs>
</svg>
