<svg width="256" height="256" viewBox="0 0 256 256" fill="none" xmlns="http://www.w3.org/2000/svg">
<g clip-path="url(#clip0_701_76)">
<path d="M161.326 168.736L157.901 167.936L157.883 167.928L157.847 167.919L157.712 167.893L157.218 167.781C156.786 167.678 156.148 167.541 155.348 167.368C153.747 167.016 151.464 166.534 148.731 166C143.265 164.942 135.938 163.651 128.575 162.791C121.302 161.939 113.652 161.466 107.692 162.163C104.752 162.507 101.749 163.187 99.3667 164.572C96.7686 166.095 94.7459 168.607 94.7459 172.109V254.795C94.7459 255.114 94.611 255.424 94.3683 255.647C94.1345 255.88 93.8109 256 93.4783 256H1.33048C0.997848 256 0.674216 255.88 0.440475 255.647C0.260675 255.484 0.143791 255.269 0.0898505 255.036C9.74514 203.291 9.13383 173.856 0.0718804 122.162C0.152791 119.039 1.47441 116.062 3.78485 113.842L3.80282 113.816L3.82079 113.799L3.88375 113.747L4.1175 113.515L5.03439 112.62L8.52253 109.23C11.5252 106.313 15.8224 102.132 21.0007 97.1067C31.3662 87.0571 45.2288 73.6173 59.2713 60.0658C73.3227 46.5142 87.5359 32.8507 98.5847 22.3622C104.105 17.1137 108.833 12.674 112.339 9.43018C114.101 7.8126 115.531 6.50479 116.61 5.55833C117.149 5.0851 117.572 4.71513 117.895 4.45701C118.14 4.25083 118.263 4.15628 118.298 4.12965C118.294 4.13236 118.288 4.1355 118.282 4.13863C121.06 2.35757 122.094 1.57461 122.678 1.10999C122.768 1.07557 122.912 1.0153 123.118 0.937865C124.674 0.318364 126.337 0 128.018 0C129.699 0 131.371 0.318364 132.918 0.937865C134.419 1.53155 135.785 2.39195 136.945 3.47608C178.973 51.8057 203.031 79.0466 252.476 114.057C253.564 115.15 254.427 116.423 255.029 117.817C255.676 119.305 256 120.906 256 122.506V254.795C256 255.114 255.865 255.424 255.632 255.647C255.398 255.88 255.074 256 254.732 256H162.594C162.252 256 161.928 255.88 161.695 255.647C161.461 255.424 161.326 255.114 161.326 254.795V172.109V168.736Z" fill="white"/>
<path d="M0.0718804 122.162C0.152791 119.039 1.47441 116.062 3.78485 113.842L3.80282 113.816L3.82079 113.799L3.88375 113.747L4.1175 113.515L5.03439 112.62L8.52253 109.23C11.5252 106.313 15.8224 102.132 21.0007 97.1067C31.3662 87.0571 45.2288 73.6173 59.2713 60.0658C73.3227 46.5142 87.5359 32.8507 98.5847 22.3622C104.105 17.1137 108.833 12.674 112.339 9.43018C114.101 7.8126 115.531 6.50479 116.61 5.55833C117.149 5.0851 117.572 4.71513 117.895 4.45701C118.192 4.20749 118.309 4.12143 118.309 4.12143C118.309 4.12143 118.3 4.13003 118.282 4.13863C121.06 2.35757 122.094 1.57461 122.678 1.10999C122.768 1.07557 122.912 1.0153 123.118 0.937865C124.674 0.318364 126.337 0 128.018 0C129.699 0 131.371 0.318364 132.918 0.937865C134.419 1.53155 135.785 2.39195 136.945 3.47608C178.973 51.8057 203.031 79.0466 252.476 114.057C253.564 115.15 254.427 116.423 255.029 117.817C255.676 119.305 256 120.906 256 122.506V254.795C256 255.114 255.865 255.424 255.632 255.647C255.398 255.88 255.074 256 254.732 256H162.594C162.252 256 161.928 255.88 161.695 255.647C161.461 255.424 161.326 255.114 161.326 254.795V172.109V168.736L157.901 167.936L157.883 167.928L157.847 167.919L157.712 167.893L157.218 167.781C156.786 167.678 156.148 167.541 155.348 167.368C153.747 167.016 151.464 166.534 148.731 166C143.265 164.942 135.938 163.651 128.575 162.791C121.302 161.939 113.652 161.466 107.692 162.163C104.752 162.507 101.749 163.187 99.3667 164.572C96.7686 166.095 94.7459 168.607 94.7459 172.109V254.795C94.7459 255.114 94.611 255.424 94.3683 255.647C94.1345 255.88 93.8109 256 93.4783 256H1.33048C0.997848 256 0.674216 255.88 0.440475 255.647C0.260675 255.484 0.143791 255.269 0.0898505 255.036M0.0718804 122.162C9.13383 173.856 9.74514 203.291 0.0898505 255.036M0.0718804 122.162C0.0449103 122.042 0.0269701 121.913 0 121.792M0.0718804 122.162C0.0628904 122.274 0.0629641 122.386 0.0629641 122.489M0.0898505 255.036C0.0718705 254.959 0.0629641 254.873 0.0629641 254.795M0.0898505 255.036C0.0628804 255.208 0.0269701 255.38 0 255.553" stroke="white"/>
</g>
<defs>
<clipPath id="clip0_701_76">
<rect width="256" height="256" fill="white"/>
</clipPath>
</defs>
</svg>
