<svg width="256" height="256" viewBox="0 0 256 256" fill="none" xmlns="http://www.w3.org/2000/svg">
<g clip-path="url(#clip0_701_54)">
<path d="M5.06879 116.913C5.14623 113.924 6.41106 111.075 8.62222 108.95L8.63942 108.926L8.65661 108.909L8.71687 108.86L8.94058 108.637L9.81807 107.781L13.1563 104.537C16.03 101.745 20.1426 97.7431 25.0983 92.9342C35.0184 83.3163 48.2854 70.4541 61.7245 57.4848C75.1721 44.5155 88.7746 31.4392 99.3486 21.4014C104.631 16.3783 109.157 12.1294 112.512 9.02498C114.199 7.4769 115.567 6.22529 116.599 5.31949C117.115 4.8666 117.52 4.51253 117.829 4.2655C118.113 4.0267 118.225 3.94434 118.225 3.94434C118.225 3.94434 118.217 3.95257 118.199 3.9608C120.858 2.25627 121.847 1.50695 122.407 1.06229C122.493 1.02935 122.63 0.971676 122.828 0.897566C124.317 0.304685 125.908 0 127.517 0C129.126 0 130.726 0.304685 132.206 0.897566C133.643 1.46574 134.951 2.28918 136.061 3.32672C176.283 49.5797 199.307 75.6501 246.627 109.156C247.668 110.202 248.494 111.421 249.071 112.755C249.69 114.179 250 115.711 250 117.242V243.847C250 244.152 249.871 244.448 249.647 244.662C249.424 244.885 249.114 245 248.787 245H160.607C160.28 245 159.971 244.885 159.747 244.662C159.523 244.448 159.394 244.152 159.394 243.847V164.714V161.486L156.116 160.72L156.099 160.712L156.064 160.704L155.935 160.679L155.462 160.572C155.049 160.473 154.438 160.342 153.673 160.177C152.141 159.839 149.956 159.378 147.34 158.868C142.109 157.855 135.097 156.619 128.051 155.796C121.09 154.981 113.768 154.528 108.064 155.195C105.251 155.524 102.377 156.175 100.097 157.501C97.6106 158.958 95.6748 161.363 95.6748 164.714V243.847C95.6748 244.152 95.5457 244.448 95.3134 244.662C95.0897 244.885 94.78 245 94.4616 245H6.27331C5.95497 245 5.64525 244.885 5.42155 244.662C5.24947 244.506 5.13761 244.3 5.08599 244.078M5.06879 116.913C13.7414 166.386 14.3264 194.556 5.08599 244.078M5.06879 116.913C5.04298 116.798 5.02581 116.674 5 116.559M5.06879 116.913C5.06019 117.02 5.06026 117.127 5.06026 117.226M5.08599 244.078C5.06878 244.004 5.06026 243.921 5.06026 243.847M5.08599 244.078C5.06018 244.242 5.02581 244.407 5 244.572" stroke="white" stroke-width="8"/>
</g>
<defs>
<clipPath id="clip0_701_54">
<rect width="256" height="256" fill="white"/>
</clipPath>
</defs>
</svg>
