<svg width="31" height="31" viewBox="0 0 31 31" fill="none" xmlns="http://www.w3.org/2000/svg">
<g filter="url(#filter0_f_39_1881)">
<path d="M10.8308 26.8674C8.70242 14.5102 7.9595 13.0088 9.5 9.5C11.6102 4.69368 17.0598 2.45972 21.6722 4.51031C26.2845 6.56089 28.313 12.1195 26.2028 16.9258C24.6623 20.4346 23.059 20.8929 12.5473 27.6306C11.8585 28.0705 10.9714 27.6761 10.8308 26.8674Z" fill="#060404" fill-opacity="0.5"/>
</g>
<path d="M9.86952 29.3947C1.54516 17.0526 0 15.7859 0 11.25C0 5.03678 4.92485 0 11 0C17.0752 0 22 5.03678 22 11.25C22 15.7859 20.4548 17.0526 12.1305 29.3947C11.5842 30.2018 10.4157 30.2017 9.86952 29.3947Z" fill="#546980"/>
<g clip-path="url(#clip0_39_1881)">
<path d="M13.5937 11.7033C14.5748 11.9891 15.233 12.8299 15.1668 13.7295C14.8551 13.3817 14.379 13.0814 13.8024 12.884L13.5937 11.7033V11.7033ZM16.6303 13.0664L17.4979 8.15793C17.5058 8.11363 17.4902 8.08629 17.4913 8.08547C15.9119 7.20883 14.1247 6.74535 12.3231 6.74535C12.279 6.74535 12.2347 6.75 12.1904 6.75055C11.809 6.38223 11.3228 6.12629 10.7798 6.03961C10.2633 5.95703 9.73935 5.9152 9.21627 5.89414C9.48943 5.5127 9.88564 5.2316 10.3584 5.15586C11.0122 5.05168 11.6693 5 12.3233 5C14.4195 5 16.4878 5.53102 18.3422 6.56023C19.0031 6.92719 19.3572 7.69281 19.2213 8.46117L18.3537 13.3696C17.9646 15.5714 14.626 17.2546 12.7633 17.2546C12.6651 17.2546 12.5787 17.2421 12.4896 17.2328C12.8593 16.7657 13.2809 16.1259 13.5697 15.3849C14.8715 15.03 16.4697 13.9734 16.6303 13.0664V13.0664ZM13.9629 9.30773C13.9828 9.19508 14.0238 9.09254 14.0742 8.99602C14.2997 9.23965 14.6394 9.42668 15.0399 9.49695C15.4405 9.5675 15.8239 9.50789 16.1195 9.35559C16.1337 9.46332 16.137 9.57379 16.117 9.68644C16.012 10.2798 15.4449 10.676 14.8499 10.5716C14.2552 10.4671 13.8579 9.90109 13.9629 9.30773V9.30773ZM2.65787 8.30586C5.09092 6.95562 7.89228 6.46262 10.6417 6.90176C11.3885 7.02098 11.9837 7.6198 12.1194 8.38816L12.987 13.2966C13.4078 15.6769 10.3817 18.6634 8.65818 18.9664C6.93471 19.2696 3.06721 17.4955 2.64639 15.1153L1.77877 10.2068C1.64287 9.43816 1.99697 8.67254 2.65787 8.30586V8.30586ZM10.1293 10.9527C10.0243 10.3594 9.45717 9.96316 8.86217 10.0679C8.26717 10.1726 7.87013 10.7384 7.97486 11.3317C7.99482 11.4444 8.03584 11.5469 8.08615 11.6434C8.31174 11.3998 8.65135 11.2128 9.05193 11.1425C9.45252 11.072 9.83588 11.1316 10.1315 11.2839C10.146 11.1759 10.1492 11.0654 10.1293 10.9527ZM8.20236 16.3876C9.72486 16.1199 10.7595 14.7669 10.637 13.3005C10.0738 13.9988 9.10006 14.5629 7.91662 14.771C6.73318 14.9791 5.62467 14.7811 4.85603 14.3171C5.24377 15.7373 6.68013 16.6553 8.20236 16.3876V16.3876ZM4.63947 12.2494C4.86506 12.0057 5.20494 11.8187 5.60552 11.7484C6.00611 11.6779 6.38947 11.7375 6.68506 11.8898C6.69928 11.7821 6.70256 11.6716 6.6826 11.5589C6.5776 10.9656 6.01049 10.5694 5.41549 10.6738C4.82076 10.7786 4.42345 11.3443 4.52818 11.9377C4.54814 12.0506 4.58916 12.1531 4.63947 12.2494Z" fill="white"/>
</g>
<defs>
<filter id="filter0_f_39_1881" x="5.68207" y="0.748901" width="24.3555" height="30.0642" filterUnits="userSpaceOnUse" color-interpolation-filters="sRGB">
<feFlood flood-opacity="0" result="BackgroundImageFix"/>
<feBlend mode="normal" in="SourceGraphic" in2="BackgroundImageFix" result="shape"/>
<feGaussianBlur stdDeviation="1.5" result="effect1_foregroundBlur_39_1881"/>
</filter>
<clipPath id="clip0_39_1881">
<rect width="17.5" height="14" fill="white" transform="translate(1.75 5)"/>
</clipPath>
</defs>
</svg>
