<svg width="31" height="31" viewBox="0 0 31 31" fill="none" xmlns="http://www.w3.org/2000/svg">
<g filter="url(#filter0_f_45_262)">
<path d="M10.8308 26.8674C8.70242 14.5102 7.9595 13.0088 9.5 9.5C11.6102 4.69368 17.0598 2.45972 21.6722 4.51031C26.2845 6.56089 28.313 12.1195 26.2028 16.9258C24.6623 20.4346 23.059 20.8929 12.5473 27.6306C11.8585 28.0705 10.9714 27.6761 10.8308 26.8674Z" fill="#060404" fill-opacity="0.5"/>
</g>
<path d="M9.86952 29.3947C1.54516 17.0526 0 15.7859 0 11.25C0 5.03678 4.92485 0 11 0C17.0752 0 22 5.03678 22 11.25C22 15.7859 20.4548 17.0526 12.1305 29.3947C11.5842 30.2018 10.4157 30.2017 9.86952 29.3947Z" fill="#546980"/>
<path d="M7.23438 3.1875C6.52575 3.1875 5.84615 3.469 5.34507 3.97007C4.844 4.47115 4.5625 5.15075 4.5625 5.85938V18.0312C4.5625 18.5037 4.75017 18.9567 5.08422 19.2908C5.41827 19.6248 5.87133 19.8125 6.34375 19.8125H13.4688C13.9412 19.8125 14.3942 19.6248 14.7283 19.2908C15.0623 18.9567 15.25 18.5037 15.25 18.0312V16.25H16.1406C16.8493 16.25 17.5289 15.9685 18.0299 15.4674C18.531 14.9664 18.8125 14.2868 18.8125 13.5781V9.42188C18.8125 8.71325 18.531 8.03365 18.0299 7.53257C17.5289 7.0315 16.8493 6.75 16.1406 6.75H15.25V5.85938C15.25 5.15075 14.9685 4.47115 14.4674 3.97007C13.9664 3.469 13.2868 3.1875 12.5781 3.1875H7.23438ZM15.25 7.9375H16.1406C16.96 7.9375 17.625 8.6025 17.625 9.42188V13.5781C17.625 14.3975 16.96 15.0625 16.1406 15.0625H15.25V7.9375ZM5.75 5.85938C5.75 5.04 6.415 4.375 7.23438 4.375H12.5781C13.3975 4.375 14.0625 5.04 14.0625 5.85938V6.75H5.75V5.85938ZM12.875 9.71875V15.6562C12.875 15.8137 12.8124 15.9647 12.7011 16.0761C12.5897 16.1874 12.4387 16.25 12.2812 16.25C12.1238 16.25 11.9728 16.1874 11.8614 16.0761C11.7501 15.9647 11.6875 15.8137 11.6875 15.6562V9.71875C11.6875 9.56128 11.7501 9.41026 11.8614 9.29891C11.9728 9.18756 12.1238 9.125 12.2812 9.125C12.4387 9.125 12.5897 9.18756 12.7011 9.29891C12.8124 9.41026 12.875 9.56128 12.875 9.71875V9.71875ZM9.90625 9.125C10.0637 9.125 10.2147 9.18756 10.3261 9.29891C10.4374 9.41026 10.5 9.56128 10.5 9.71875V15.6562C10.5 15.8137 10.4374 15.9647 10.3261 16.0761C10.2147 16.1874 10.0637 16.25 9.90625 16.25C9.74878 16.25 9.59776 16.1874 9.48641 16.0761C9.37506 15.9647 9.3125 15.8137 9.3125 15.6562V9.71875C9.3125 9.56128 9.37506 9.41026 9.48641 9.29891C9.59776 9.18756 9.74878 9.125 9.90625 9.125V9.125ZM8.125 9.71875V15.6562C8.125 15.8137 8.06244 15.9647 7.95109 16.0761C7.83974 16.1874 7.68872 16.25 7.53125 16.25C7.37378 16.25 7.22276 16.1874 7.11141 16.0761C7.00006 15.9647 6.9375 15.8137 6.9375 15.6562V9.71875C6.9375 9.56128 7.00006 9.41026 7.11141 9.29891C7.22276 9.18756 7.37378 9.125 7.53125 9.125C7.68872 9.125 7.83974 9.18756 7.95109 9.29891C8.06244 9.41026 8.125 9.56128 8.125 9.71875V9.71875Z" fill="white"/>
<defs>
<filter id="filter0_f_45_262" x="5.68207" y="0.748901" width="24.3555" height="30.0642" filterUnits="userSpaceOnUse" color-interpolation-filters="sRGB">
<feFlood flood-opacity="0" result="BackgroundImageFix"/>
<feBlend mode="normal" in="SourceGraphic" in2="BackgroundImageFix" result="shape"/>
<feGaussianBlur stdDeviation="1.5" result="effect1_foregroundBlur_45_262"/>
</filter>
</defs>
</svg>
