<svg width="31" height="31" viewBox="0 0 31 31" fill="none" xmlns="http://www.w3.org/2000/svg">
<g filter="url(#filter0_f_45_265)">
<path d="M10.8308 26.8674C8.70242 14.5102 7.9595 13.0088 9.5 9.5C11.6102 4.69368 17.0598 2.45972 21.6722 4.51031C26.2845 6.56089 28.313 12.1195 26.2028 16.9258C24.6623 20.4346 23.059 20.8929 12.5473 27.6306C11.8585 28.0705 10.9714 27.6761 10.8308 26.8674Z" fill="#060404" fill-opacity="0.5"/>
</g>
<path d="M9.86952 29.3947C1.54516 17.0526 0 15.7859 0 11.25C0 5.03678 4.92485 0 11 0C17.0752 0 22 5.03678 22 11.25C22 15.7859 20.4548 17.0526 12.1305 29.3947C11.5842 30.2018 10.4157 30.2017 9.86952 29.3947Z" fill="#546980"/>
<path d="M18.36 7.79583C18.4437 7.67033 18.4918 7.52446 18.4991 7.37376C18.5065 7.22307 18.4727 7.07322 18.4016 6.9402C18.3304 6.80717 18.2244 6.69596 18.095 6.61844C17.9656 6.54091 17.8175 6.49998 17.6667 6.5H4.33333C4.18259 6.50008 4.0347 6.54104 3.9054 6.61852C3.7761 6.69601 3.67024 6.80711 3.5991 6.94C3.52795 7.07289 3.49418 7.22259 3.50138 7.37315C3.50858 7.52372 3.55649 7.66951 3.64 7.795L10.1667 17.5858V20.6667H7.66666V22.3333H14.3333V20.6667H11.8333V17.5858L18.36 7.79583V7.79583ZM16.11 8.16667L14.4433 10.6667H7.55666L5.89 8.16667H16.11V8.16667Z" fill="white"/>
<defs>
<filter id="filter0_f_45_265" x="5.68207" y="0.748901" width="24.3555" height="30.0642" filterUnits="userSpaceOnUse" color-interpolation-filters="sRGB">
<feFlood flood-opacity="0" result="BackgroundImageFix"/>
<feBlend mode="normal" in="SourceGraphic" in2="BackgroundImageFix" result="shape"/>
<feGaussianBlur stdDeviation="1.5" result="effect1_foregroundBlur_45_265"/>
</filter>
</defs>
</svg>
