<svg width="31" height="31" viewBox="0 0 31 31" fill="none" xmlns="http://www.w3.org/2000/svg">
<g filter="url(#filter0_f_44_198)">
<path d="M10.8308 26.8674C8.70242 14.5102 7.9595 13.0088 9.5 9.5C11.6102 4.69368 17.0598 2.45972 21.6722 4.51031C26.2845 6.56089 28.313 12.1195 26.2028 16.9258C24.6623 20.4346 23.059 20.8929 12.5473 27.6306C11.8585 28.0705 10.9714 27.6761 10.8308 26.8674Z" fill="#060404" fill-opacity="0.5"/>
</g>
<path d="M9.86952 29.3947C1.54516 17.0526 0 15.7859 0 11.25C0 5.03678 4.92485 0 11 0C17.0752 0 22 5.03678 22 11.25C22 15.7859 20.4548 17.0526 12.1305 29.3947C11.5842 30.2018 10.4157 30.2017 9.86952 29.3947Z" fill="#546980"/>
<path d="M6.18109 4L5.00925 9.86667C4.83816 10.7253 7.09747 11.1264 7.05997 12L6.76701 18.9333C6.72248 20 7.93886 20 7.93886 20C7.93886 20 9.15523 20 9.1107 18.9333L8.81774 12C8.78141 11.1275 10.8485 10.7413 10.8685 9.86667L9.69662 4H9.1107L9.40366 8.26667L8.52478 8.8L8.23182 4H7.6459L7.35293 8.8L6.47405 8.26667L6.76701 4H6.18109ZM16.1418 4C15.2793 4 13.8403 4.69867 13.2649 5.74613C12.7844 6.5312 12.6262 8.28587 12.6262 9.33333V12C12.6262 12.8725 13.9035 13.0667 14.384 13.0667L13.7981 18.9333C13.6926 19.9957 14.9699 20 14.9699 20C14.9699 20 16.1418 20 16.1418 18.9333V4Z" fill="white"/>
<defs>
<filter id="filter0_f_44_198" x="5.68207" y="0.748901" width="24.3555" height="30.0642" filterUnits="userSpaceOnUse" color-interpolation-filters="sRGB">
<feFlood flood-opacity="0" result="BackgroundImageFix"/>
<feBlend mode="normal" in="SourceGraphic" in2="BackgroundImageFix" result="shape"/>
<feGaussianBlur stdDeviation="1.5" result="effect1_foregroundBlur_44_198"/>
</filter>
</defs>
</svg>
